<svg width="48" height="43" viewBox="0 0 48 43" fill="none" xmlns="http://www.w3.org/2000/svg">
<path d="M45.1875 32.074V12.7328L47.0857 12.0271C47.6355 11.8226 48 11.2998 48 10.7155C48 10.1313 47.6355 9.60841 47.0857 9.40401L24.492 1.00401C24.1747 0.886034 23.8253 0.886034 23.5081 1.00401L0.914344 9.40401C0.3645 9.60841 0 10.1313 0 10.7155C0 11.2998 0.3645 11.8226 0.91425 12.027L10.2769 15.5079C8.06034 21.7343 8.61956 25.0095 8.53125 26.1155C8.53125 26.58 8.76272 27.0144 9.14906 27.2748C9.5355 27.5353 10.0264 27.5879 10.4597 27.4154C10.4924 27.4024 13.7611 26.1155 16.9688 26.1155C19.936 26.1155 23.0917 28.5852 23.1215 28.6087C23.6351 29.0177 24.3649 29.0177 24.8784 28.6087C25.7492 27.9153 28.5519 26.1155 31.0312 26.1155C34.2212 26.1155 37.5086 27.4029 37.5402 27.4154C37.9734 27.5879 38.4645 27.5352 38.8508 27.2748C39.2373 27.0144 39.4688 26.58 39.4688 26.1155C39.3871 25.0935 39.928 21.7016 37.723 15.5079L42.375 13.7784V32.074C41.652 32.4629 41.0213 33.1606 40.5347 34.1296C39.9078 35.3779 39.5625 37.0066 39.5625 38.7155V41.5155C39.5625 42.2887 40.1921 42.9155 40.9688 42.9155H46.5938C47.3704 42.9155 48 42.2887 48 41.5155V38.7155C48 37.0066 47.6547 35.3779 47.0278 34.1296C46.5412 33.1606 45.9105 32.4629 45.1875 32.074ZM24 3.80998L42.5741 10.7155C40.658 11.4279 25.8544 16.9317 24 17.6211C22.1456 16.9317 7.34203 11.4279 5.42587 10.7155L24 3.80998ZM36.6447 24.1763C35.2026 23.7681 33.1306 23.3155 31.0312 23.3155C28.1547 23.3155 25.3713 24.8851 24 25.7945C22.6287 24.8851 19.8452 23.3155 16.9688 23.3155C14.8695 23.3155 12.7974 23.7681 11.3553 24.1763C11.4362 21.33 11.9439 19.2102 12.9118 16.4875L23.5081 20.427C23.8253 20.545 24.1747 20.545 24.492 20.427L35.0883 16.4875C36.0561 19.2102 36.5637 21.3301 36.6447 24.1763ZM45.1875 40.1155H42.375V38.7155C42.375 37.4514 42.6212 36.2363 43.0503 35.3818C43.4097 34.6662 43.7325 34.5155 43.7812 34.5155C43.83 34.5155 44.1528 34.6662 44.5122 35.3818C44.9413 36.2363 45.1875 37.4514 45.1875 38.7155V40.1155Z" fill="#B38B6D"/>
</svg>
