<svg width="48" height="49" viewBox="0 0 48 49" fill="none" xmlns="http://www.w3.org/2000/svg">
<mask id="mask0_154_10" style="mask-type:alpha" maskUnits="userSpaceOnUse" x="0" y="0" width="48" height="49">
<rect y="0.915527" width="48" height="48" fill="#D9D9D9"/>
</mask>
<g mask="url(#mask0_154_10)">
<path d="M36.7901 0.788818C33.6029 0.788818 31.0101 3.31716 31.0101 6.42479V10.001C30.1592 9.51976 29.1726 9.24272 28.1201 9.24272C26.3949 9.24272 24.845 9.98438 23.7851 11.1568C22.7251 9.98447 21.1752 9.24272 19.4501 9.24272C18.3977 9.24272 17.411 9.51976 16.56 10.001V6.42479C16.56 3.31716 13.9672 0.788818 10.7801 0.788818C7.59294 0.788818 5 3.31716 5 6.42479V24.8358V27.6538V33.2898C5 41.8359 12.1305 48.7888 20.895 48.7888H26.675C35.4395 48.7888 42.57 41.8359 42.57 33.2898V6.42479C42.5701 3.31716 39.9772 0.788818 36.7901 0.788818ZM25.23 14.8789C25.23 13.3251 26.5265 12.0608 28.1201 12.0608C29.7136 12.0608 31.0101 13.325 31.0101 14.8789V21.367C30.1592 20.8858 29.1726 20.6088 28.1201 20.6088H25.23V14.8789ZM16.56 14.8789C16.56 13.3251 17.8565 12.0608 19.4501 12.0608C21.0436 12.0608 22.3401 13.325 22.3401 14.8789V20.6088H16.5601V14.8789H16.56ZM7.89003 6.42479C7.89003 4.87097 9.18645 3.60676 10.7801 3.60676C12.3736 3.60676 13.6701 4.87088 13.6701 6.42479V20.7098C11.4209 21.0249 9.40865 22.0641 7.89013 23.5767V6.42479H7.89003ZM39.6801 33.2898C39.6801 40.2821 33.846 45.9708 26.6751 45.9708H20.8951C13.7241 45.9708 7.89013 40.282 7.89013 33.2898V30.4718C7.89013 26.5871 11.1313 23.4267 15.1152 23.4267H28.1202C29.7137 23.4267 31.0102 24.6908 31.0102 26.2448C31.0102 27.7987 29.7138 29.0628 28.1202 29.0628H15.1151C14.3171 29.0628 13.6701 29.6936 13.6701 30.4718C13.6701 31.2499 14.3171 31.8807 15.1151 31.8807C20.6925 31.8807 25.23 36.3053 25.23 41.7437C25.23 42.5218 25.877 43.1527 26.675 43.1527C27.473 43.1527 28.12 42.5218 28.12 41.7437C28.12 37.764 26.2297 34.2073 23.2791 31.8807H28.12C31.3071 31.8807 33.8999 29.3524 33.8999 26.2448V6.42479C33.8999 4.87097 35.1964 3.60676 36.79 3.60676C38.3835 3.60676 39.68 4.87088 39.68 6.42479V33.2898H39.6801Z" fill="#B38B6D"/>
</g>
</svg>
