<svg width="48" height="40" viewBox="0 0 48 40" fill="none" xmlns="http://www.w3.org/2000/svg">
<path d="M46.3892 6.1892L43.0245 6.18904V2.69022C43.0245 1.88919 42.4411 1.20861 41.6524 1.0901C41.5147 1.06932 38.2368 0.591034 34.2897 1.31252C29.8894 2.1168 26.38 4.10024 23.9999 7.09868C21.6196 4.10024 18.1103 2.1168 13.7102 1.31252C9.76288 0.591196 6.48499 1.06932 6.34745 1.0901C5.55877 1.20878 4.97534 1.88935 4.97534 2.69022V6.18904H1.61066C0.72129 6.18904 0 6.9136 0 7.80718V38.2974C0 38.8213 0.252444 39.3127 0.677654 39.6163C1.10286 39.9199 1.64799 39.9978 2.14044 39.8254C2.26133 39.7834 14.3313 35.6454 23.3315 39.7694C23.7562 39.9641 24.2438 39.9641 24.6685 39.7694C33.6435 35.6571 45.7393 39.7837 45.8596 39.8254C46.0322 39.8858 46.2109 39.9155 46.389 39.9155C46.7192 39.9155 47.046 39.8136 47.3223 39.6165C47.7476 39.3129 48 38.8214 48 38.2975V7.80734C47.9998 6.91377 47.2787 6.1892 46.3892 6.1892ZM3.22148 36.1324V9.42517H4.97534V30.9733C4.97534 31.4434 5.1801 31.8899 5.5342 32.1972C5.8883 32.5046 6.35925 32.6424 6.82212 32.5737C6.91101 32.5607 13.9083 31.5957 19.0205 35.1192C12.7232 34.0375 6.4205 35.2887 3.22148 36.1324ZM22.3893 33.66C20.1376 31.6163 17.2048 30.2344 13.7102 29.5957C12.0284 29.2882 10.4682 29.1986 9.22049 29.1986C8.85007 29.1986 8.50712 29.2066 8.19698 29.2191V4.17605H8.19682C11.2926 4.03578 18.8234 4.36828 22.3893 10.4407V33.66ZM25.6106 10.4408C29.1637 4.39441 36.7063 4.04682 39.803 4.18011V29.2191C38.4482 29.1642 36.4705 29.197 34.2897 29.5957C30.795 30.2344 27.8622 31.6162 25.6106 33.66V10.4408ZM28.974 35.1202C34.0868 31.5946 41.0879 32.5606 41.1751 32.5736C41.6391 32.6435 42.1098 32.5065 42.465 32.1993C42.8202 31.8919 43.0245 31.4444 43.0245 30.9733V9.42533H44.7784V36.1324C41.5784 35.2884 35.2731 34.0367 28.974 35.1202Z" fill="#B38B6D"/>
</svg>
