<svg width="41" height="37" viewBox="0 0 41 37" fill="none" xmlns="http://www.w3.org/2000/svg">
<path d="M40.971 11.2694C40.7214 8.41845 38.7724 5.98484 36.7896 4.08032C35.031 2.39084 31.1352 -0.416443 30.6815 0.0519698C30.2448 0.480993 34.8258 3.61936 36.1541 6.06787C36.5422 6.75584 36.8488 7.48722 37.0677 8.24706C37.4907 9.78324 37.3448 11.5696 36.3042 12.7715C35.712 13.456 34.8787 13.8967 34.0105 14.1427C32.8007 14.4833 31.5391 14.4535 30.2955 14.5291C29.3353 11.8059 27.7068 10.4199 25.5241 10.0898C25.8193 10.0059 26.1246 9.96322 26.4314 9.96315C26.4927 9.96315 26.553 9.96315 26.6133 9.96315C26.194 9.78053 25.7419 9.68667 25.2851 9.68742C24.9492 9.68746 24.6152 9.73805 24.2942 9.83753C24.0515 9.81183 23.8076 9.79904 23.5635 9.7992H23.4916C24.2642 9.32921 25.1501 9.08141 26.0528 9.08275C26.1438 9.08275 26.2337 9.08275 26.3225 9.0902C25.3293 8.65742 24.2228 8.56341 23.1716 8.82249C22.1204 9.08157 21.1822 9.67953 20.4999 10.5252C19.8181 9.68078 18.881 9.08361 17.8311 8.82457C16.7812 8.56553 15.676 8.6588 14.6836 9.0902C14.7725 9.08488 14.8624 9.08275 14.9533 9.08275C15.8561 9.08141 16.7419 9.32921 17.5146 9.7992H17.4427C17.1982 9.79907 16.954 9.81186 16.7109 9.83753C16.3885 9.73752 16.0531 9.68692 15.7158 9.68742C15.2588 9.68689 14.8067 9.78111 14.3875 9.96421C14.4468 9.96421 14.5081 9.96421 14.5684 9.96421C14.8755 9.96422 15.1812 10.0068 15.4768 10.0909C13.2994 10.4209 11.6698 11.807 10.7053 14.5259C9.46065 14.4503 8.19905 14.4801 6.99033 14.1395C6.12106 13.8936 5.28881 13.4528 4.69555 12.7683C3.65603 11.5664 3.51221 9.78004 3.9331 8.24386C4.15191 7.48517 4.4582 6.75486 4.84572 6.06787C6.175 3.61936 10.7614 0.480993 10.3193 0.0519698C9.86567 -0.416443 5.96984 2.39403 4.21016 4.08032C2.22841 5.98484 0.279433 8.41845 0.0288051 11.2694C-0.232397 14.2502 1.30944 17.4013 3.57249 19.2718C5.05299 20.5003 6.8243 21.1348 8.6707 21.4148C8.5586 21.4148 8.44545 21.4212 8.3323 21.4212C7.16893 21.4229 6.01561 21.2044 4.93243 20.7771C5.46712 21.4593 6.13522 22.0238 6.89538 22.4357C7.65553 22.8475 8.49157 23.0979 9.35173 23.1713C8.98485 24.1421 8.89411 25.1966 9.08969 26.2164C9.28528 27.2362 9.75944 28.181 10.4589 28.9445C10.2727 28.379 10.1781 27.7869 10.1787 27.1911C10.1789 26.7432 10.2322 26.2968 10.3373 25.8615C10.3257 26.0297 10.3193 26.2 10.3193 26.3725C10.3195 26.7433 10.3489 27.1135 10.4071 27.4796V27.485C10.454 27.7764 10.5197 28.0644 10.6038 28.3473L10.6916 28.7337C10.7543 28.9948 10.8355 29.2509 10.9348 29.5002C10.9316 29.6809 10.9447 29.8616 10.9739 30.0399C11.096 30.7973 11.4984 31.48 12.1002 31.9508C11.9498 31.6624 11.8466 31.3515 11.7946 31.03C11.7946 31.0055 11.7882 30.981 11.785 30.9565C12.5359 31.8903 13.5731 32.547 14.7344 32.8238C15.1838 33.0686 15.2441 33.4178 15.3382 34.0278C15.4407 34.6255 15.6008 35.2116 15.8162 35.778C15.8162 35.778 15.8881 36.2358 16.9795 36.6605C17.9238 37.0257 19.9511 37.0076 20.4946 36.9948C21.0392 37.0076 23.0664 37.0257 24.0097 36.6605C25.1064 36.2347 25.173 35.778 25.173 35.778C25.3885 35.2116 25.549 34.6254 25.652 34.0278C25.7462 33.4178 25.8054 33.0697 26.2548 32.8238C27.4162 32.5467 28.4538 31.8901 29.2052 30.9565L29.1957 31.03C29.1432 31.3514 29.04 31.6622 28.8901 31.9508C29.4911 31.4794 29.8934 30.797 30.0163 30.0399C30.045 29.8615 30.0581 29.6809 30.0555 29.5002C30.1548 29.2511 30.2358 28.9949 30.2976 28.7337L30.3865 28.3473C30.47 28.0643 30.5357 27.7763 30.5832 27.485V27.4796C30.6423 27.1136 30.672 26.7433 30.672 26.3725C30.672 26.2 30.6656 26.0297 30.653 25.8615C30.9005 26.8817 30.8587 27.9513 30.5324 28.9487C31.2322 28.1854 31.7066 27.2407 31.902 26.2207C32.0974 25.2008 32.0062 24.1461 31.6385 23.1756C32.4987 23.1023 33.3348 22.8519 34.095 22.4401C34.8552 22.0283 35.5232 21.4637 36.0578 20.7813C34.975 21.2086 33.8221 21.4271 32.659 21.4254C32.5459 21.4254 32.4327 21.4254 32.3206 21.419C34.166 21.139 35.932 20.5046 37.4188 19.276C39.6914 17.4013 41.2332 14.2502 40.971 11.2694Z" fill="#0E0C0A"/>
</svg>
