<svg width="22" height="22" viewBox="0 0 22 22" fill="none" xmlns="http://www.w3.org/2000/svg">
<path d="M15.9287 0H6.07107C2.72349 0 0 2.72362 0 6.07121V15.9288C0 19.2765 2.72349 22 6.07107 22H15.9287C19.2765 22 22 19.2764 22 15.9288V6.07121C22.0001 2.72362 19.2765 0 15.9287 0ZM20.0482 15.9288C20.0482 18.2002 18.2002 20.0481 15.9288 20.0481H6.07107C3.79979 20.0482 1.95195 18.2002 1.95195 15.9288V6.07121C1.95195 3.79992 3.79979 1.95195 6.07107 1.95195H15.9287C18.2001 1.95195 20.0481 3.79992 20.0481 6.07121L20.0482 15.9288Z" fill="#0E0C0A"/>
<path d="M11.0001 5.33145C7.87425 5.33145 5.33125 7.87444 5.33125 11.0003C5.33125 14.126 7.87425 16.6689 11.0001 16.6689C14.1259 16.6689 16.6689 14.126 16.6689 11.0003C16.6689 7.87444 14.1259 5.33145 11.0001 5.33145ZM11.0001 14.7168C8.95068 14.7168 7.2832 13.0496 7.2832 11.0002C7.2832 8.95061 8.95055 7.28326 11.0001 7.28326C13.0496 7.28326 14.717 8.95061 14.717 11.0002C14.717 13.0496 13.0495 14.7168 11.0001 14.7168Z" fill="#0E0C0A"/>
<path d="M16.9067 3.67629C16.5306 3.67629 16.1612 3.82855 15.8956 4.09531C15.6287 4.36078 15.4753 4.73034 15.4753 5.10772C15.4753 5.48393 15.6288 5.85336 15.8956 6.12013C16.1611 6.3856 16.5306 6.53915 16.9067 6.53915C17.2841 6.53915 17.6524 6.3856 17.9191 6.12013C18.1859 5.85336 18.3381 5.4838 18.3381 5.10772C18.3381 4.73034 18.1859 4.36078 17.9191 4.09531C17.6537 3.82855 17.2841 3.67629 16.9067 3.67629Z" fill="#0E0C0A"/>
</svg>
