<svg width="17" height="18" viewBox="0 0 17 18" fill="none" xmlns="http://www.w3.org/2000/svg">
<path d="M14.708 12.6374C13.6709 11.7591 12.6184 11.227 11.594 12.104L10.9824 12.6341C10.5348 13.0189 9.70274 14.8168 6.48562 11.152C3.26917 7.49192 5.18323 6.92204 5.63143 6.54057L6.24645 6.00983C7.26545 5.13079 6.88089 4.0242 6.14595 2.8851L5.70244 2.19514C4.96415 1.0587 4.16021 0.312349 3.13853 1.19006L2.58648 1.66772C2.13494 1.99346 0.872741 3.05229 0.566572 5.06379C0.198097 7.47732 1.36047 10.2411 4.02354 13.2737C6.68326 16.3075 9.28737 17.8314 11.7541 17.8048C13.8042 17.7829 15.0423 16.6936 15.4295 16.2975L15.9836 15.8192C17.0026 14.9422 16.3695 14.0492 15.3317 13.1688L14.708 12.6374Z" fill="#FCFCF5"/>
</svg>
