<svg width="17" height="17" viewBox="0 0 17 17" fill="none" xmlns="http://www.w3.org/2000/svg">
<path d="M8.502 0.305176H8.498C4.087 0.305176 0.5 3.89318 0.5 8.30518C0.5 10.0552 1.064 11.6772 2.023 12.9942L1.026 15.9662L4.101 14.9832C5.366 15.8212 6.875 16.3052 8.502 16.3052C12.913 16.3052 16.5 12.7162 16.5 8.30518C16.5 3.89418 12.913 0.305176 8.502 0.305176ZM13.157 11.6022C12.964 12.1472 12.198 12.5992 11.587 12.7312C11.169 12.8202 10.623 12.8912 8.785 12.1292C6.434 11.1552 4.92 8.76618 4.802 8.61118C4.689 8.45618 3.852 7.34618 3.852 6.19818C3.852 5.05018 4.435 4.49118 4.67 4.25118C4.863 4.05418 5.182 3.96418 5.488 3.96418C5.587 3.96418 5.676 3.96918 5.756 3.97318C5.991 3.98318 6.109 3.99718 6.264 4.36818C6.457 4.83318 6.927 5.98118 6.983 6.09918C7.04 6.21718 7.097 6.37718 7.017 6.53218C6.942 6.69218 6.876 6.76318 6.758 6.89918C6.64 7.03518 6.528 7.13918 6.41 7.28518C6.302 7.41218 6.18 7.54818 6.316 7.78318C6.452 8.01318 6.922 8.78018 7.614 9.39618C8.507 10.1912 9.231 10.4452 9.49 10.5532C9.683 10.6332 9.913 10.6142 10.054 10.4642C10.233 10.2712 10.454 9.95118 10.679 9.63618C10.839 9.41018 11.041 9.38218 11.253 9.46218C11.469 9.53718 12.612 10.1022 12.847 10.2192C13.082 10.3372 13.237 10.3932 13.294 10.4922C13.35 10.5912 13.35 11.0562 13.157 11.6022Z" fill="#FCFCF5"/>
</svg>
